<svg width="22" height="22" viewBox="0 0 22 22" fill="none" xmlns="http://www.w3.org/2000/svg">
<path d="M11.0001 21.8332C5.01683 21.8332 0.166748 16.9831 0.166748 10.9998C0.166748 5.01659 5.01683 0.166504 11.0001 0.166504C16.9833 0.166504 21.8334 5.01659 21.8334 10.9998C21.8334 16.9831 16.9833 21.8332 11.0001 21.8332ZM11.0001 19.6665C13.2986 19.6665 15.503 18.7534 17.1283 17.1281C18.7537 15.5028 19.6667 13.2984 19.6667 10.9998C19.6667 8.70129 18.7537 6.49689 17.1283 4.87158C15.503 3.24626 13.2986 2.33317 11.0001 2.33317C8.70154 2.33317 6.49714 3.24626 4.87182 4.87158C3.24651 6.49689 2.33341 8.70129 2.33341 10.9998C2.33341 13.2984 3.24651 15.5028 4.87182 17.1281C6.49714 18.7534 8.70154 19.6665 11.0001 19.6665ZM9.91675 14.2498H12.0834V16.4165H9.91675V14.2498ZM12.0834 12.4678V13.1665H9.91675V11.5415C9.91675 11.2542 10.0309 10.9786 10.234 10.7755C10.4372 10.5723 10.7128 10.4582 11.0001 10.4582C11.3078 10.4582 11.6093 10.3707 11.8693 10.2061C12.1293 10.0415 12.3372 9.8064 12.4688 9.52822C12.6005 9.25004 12.6504 8.9402 12.6128 8.63475C12.5752 8.3293 12.4517 8.0408 12.2566 7.80282C12.0614 7.56484 11.8027 7.38717 11.5106 7.29047C11.2184 7.19377 10.9048 7.18203 10.6062 7.2566C10.3076 7.33118 10.0364 7.489 9.82398 7.71172C9.61159 7.93444 9.46682 8.21289 9.4065 8.51467L7.281 8.08892C7.41277 7.43035 7.71705 6.81857 8.16274 6.31614C8.60844 5.81371 9.17956 5.43863 9.81772 5.22927C10.4559 5.0199 11.1382 4.98375 11.7949 5.1245C12.4516 5.26526 13.0592 5.57788 13.5555 6.0304C14.0518 6.48292 14.419 7.05911 14.6196 7.70007C14.8202 8.34103 14.8471 9.02378 14.6973 9.6785C14.5476 10.3332 14.2267 10.9365 13.7675 11.4265C13.3082 11.9166 12.7271 12.2759 12.0834 12.4678Z" fill="#151818"/>
</svg>
