<svg width="24" height="24" viewBox="0 0 24 24" fill="none" xmlns="http://www.w3.org/2000/svg">
<path d="M8.40983 3.33333L11.2341 0.50908C11.4372 0.305986 11.7127 0.191895 12 0.191895C12.2873 0.191895 12.5628 0.305986 12.7659 0.50908L15.5902 3.33333H19.5833C19.8706 3.33333 20.1462 3.44747 20.3494 3.65063C20.5525 3.8538 20.6667 4.12934 20.6667 4.41666V8.40983L23.4909 11.2341C23.694 11.4372 23.8081 11.7127 23.8081 12C23.8081 12.2873 23.694 12.5628 23.4909 12.7659L20.6667 15.5902V19.5833C20.6667 19.8706 20.5525 20.1462 20.3494 20.3494C20.1462 20.5525 19.8706 20.6667 19.5833 20.6667H15.5902L12.7659 23.4909C12.5628 23.694 12.2873 23.8081 12 23.8081C11.7127 23.8081 11.4372 23.694 11.2341 23.4909L8.40983 20.6667H4.41666C4.12934 20.6667 3.8538 20.5525 3.65063 20.3494C3.44747 20.1462 3.33333 19.8706 3.33333 19.5833V15.5902L0.50908 12.7659C0.305986 12.5628 0.191895 12.2873 0.191895 12C0.191895 11.7127 0.305986 11.4372 0.50908 11.2341L3.33333 8.40983V4.41666C3.33333 4.12934 3.44747 3.8538 3.65063 3.65063C3.8538 3.44747 4.12934 3.33333 4.41666 3.33333H8.40983ZM5.5 5.5V9.30791L2.80791 12L5.5 14.6921V18.5H9.30791L12 21.1921L14.6921 18.5H18.5V14.6921L21.1921 12L18.5 9.30791V5.5H14.6921L12 2.80791L9.30791 5.5H5.5ZM12 16.3333C10.8507 16.3333 9.74852 15.8768 8.93587 15.0641C8.12321 14.2515 7.66666 13.1493 7.66666 12C7.66666 10.8507 8.12321 9.74852 8.93587 8.93587C9.74852 8.12321 10.8507 7.66666 12 7.66666C13.1493 7.66666 14.2515 8.12321 15.0641 8.93587C15.8768 9.74852 16.3333 10.8507 16.3333 12C16.3333 13.1493 15.8768 14.2515 15.0641 15.0641C14.2515 15.8768 13.1493 16.3333 12 16.3333ZM12 14.1667C12.5746 14.1667 13.1257 13.9384 13.5321 13.5321C13.9384 13.1257 14.1667 12.5746 14.1667 12C14.1667 11.4254 13.9384 10.8743 13.5321 10.4679C13.1257 10.0616 12.5746 9.83333 12 9.83333C11.4254 9.83333 10.8743 10.0616 10.4679 10.4679C10.0616 10.8743 9.83333 11.4254 9.83333 12C9.83333 12.5746 10.0616 13.1257 10.4679 13.5321C10.8743 13.9384 11.4254 14.1667 12 14.1667Z" fill="#151818"/>
</svg>
