<svg width="13" height="14" viewBox="0 0 13 14" fill="none" xmlns="http://www.w3.org/2000/svg">
<path d="M10.4844 9.52344C10.0112 9.52344 9.57461 9.68945 9.23262 9.9667L5.79277 7.47812C5.85037 7.16198 5.85037 6.83802 5.79277 6.52188L9.23262 4.0333C9.57461 4.31055 10.0112 4.47656 10.4844 4.47656C11.5834 4.47656 12.4766 3.5834 12.4766 2.48438C12.4766 1.38535 11.5834 0.492188 10.4844 0.492188C9.38535 0.492188 8.49219 1.38535 8.49219 2.48438C8.49219 2.67695 8.51875 2.86123 8.57022 3.03721L5.30303 5.40293C4.81826 4.76045 4.04795 4.34375 3.17969 4.34375C1.71211 4.34375 0.523438 5.53242 0.523438 7C0.523438 8.46758 1.71211 9.65625 3.17969 9.65625C4.04795 9.65625 4.81826 9.23955 5.30303 8.59707L8.57022 10.9628C8.51875 11.1388 8.49219 11.3247 8.49219 11.5156C8.49219 12.6146 9.38535 13.5078 10.4844 13.5078C11.5834 13.5078 12.4766 12.6146 12.4766 11.5156C12.4766 10.4166 11.5834 9.52344 10.4844 9.52344ZM10.4844 1.62109C10.9608 1.62109 11.3477 2.00791 11.3477 2.48438C11.3477 2.96084 10.9608 3.34766 10.4844 3.34766C10.0079 3.34766 9.62109 2.96084 9.62109 2.48438C9.62109 2.00791 10.0079 1.62109 10.4844 1.62109ZM3.17969 8.46094C2.37451 8.46094 1.71875 7.80518 1.71875 7C1.71875 6.19482 2.37451 5.53906 3.17969 5.53906C3.98486 5.53906 4.64062 6.19482 4.64062 7C4.64062 7.80518 3.98486 8.46094 3.17969 8.46094ZM10.4844 12.3789C10.0079 12.3789 9.62109 11.9921 9.62109 11.5156C9.62109 11.0392 10.0079 10.6523 10.4844 10.6523C10.9608 10.6523 11.3477 11.0392 11.3477 11.5156C11.3477 11.9921 10.9608 12.3789 10.4844 12.3789Z" fill="#1C6758"/>
</svg>
